<svg xmlns="http://www.w3.org/2000/svg" viewBox="0 0 256 256" role="img" aria-label="Telefoo Gym Planner icon">
  <defs>
    <linearGradient id="bg" x1="0" y1="0" x2="1" y2="1">
      <stop offset="0%" stop-color="#1f1f1f"/>
      <stop offset="100%" stop-color="#0d0d0d"/>
    </linearGradient>
    <linearGradient id="accent" x1="0" y1="0" x2="1" y2="1">
      <stop offset="0%" stop-color="#e8ff47"/>
      <stop offset="100%" stop-color="#ff5c35"/>
    </linearGradient>
  </defs>
  <rect x="8" y="8" width="240" height="240" rx="52" fill="url(#bg)"/>
  <path d="M40 122h36c8 0 13-3 16-8l9-18c3-7 8-10 15-10h24c7 0 12 3 15 10l9 18c3 5 8 8 16 8h36c9 0 16 7 16 16v6c0 9-7 16-16 16h-36c-22 0-35-9-44-27l-3-6h-9l-3 6c-9 18-22 27-44 27H40c-9 0-16-7-16-16v-6c0-9 7-16 16-16z" fill="url(#accent)"/>
</svg>
